Coordinates
version=1
nRows=24
nColumns=22
inDegrees=yes

Units are S.I. units (second, meters, Newtons, ...)
If the header above contains a line with 'inDegrees', this indicates whether rotational values are in degrees (yes) or radians (no).

endheader
time	pelvis_tilt	pelvis_list	pelvis_rotation	pelvis_tx	pelvis_ty	pelvis_tz	hip_flexion_r	hip_adduction_r	hip_rotation_r	knee_angle_r	ankle_angle_r	subtalar_angle_r	hip_flexion_l	hip_adduction_l	hip_rotation_l	knee_angle_l	ankle_angle_l	subtalar_angle_l	lumbar_extension	lumbar_bending	lumbar_rotation
      2.69000000	     -1.93365704	      5.92794059	     -0.99762711	     -0.18129655	      1.04999663	     -0.33595692	     -1.74492332	     -4.30154040	      1.90984361	    -31.90050829	     16.61046884	     -1.61690943	     20.03743095	      5.96514547	     -5.10519883	     -9.18725089	      4.71995869	      9.43077220	     -5.76336605	     -8.93216565	     -2.32970291
      2.70000000	     -1.92955519	      5.64994191	     -0.80850417	     -0.19239247	      1.04941830	     -0.33494024	     -1.52129286	     -3.97172009	      0.83673991	    -31.28402048	     17.59806564	     -2.60092374	     20.32752063	      5.56358055	     -5.72489115	     -8.76236265	      5.65487935	     10.00768681	     -6.18002112	     -8.48832655	     -2.47790271
      2.71000000	     -1.91670411	      5.30554211	     -0.62010048	     -0.20349701	      1.04903024	     -0.33394674	     -1.24139351	     -3.56998533	     -0.17274586	    -30.74989432	     18.42092290	     -3.45514582	     20.65470949	      5.09859649	     -6.46757385	     -8.48152413	      6.63012567	     10.27654911	     -6.59920475	     -7.96904388	     -2.59447420
      2.72000000	     -1.88321934	      4.88066760	     -0.44715058	     -0.21461218	      1.04882824	     -0.33294364	     -0.92058375	     -3.07830220	     -1.05374099	    -30.29658835	     19.06671684	     -4.11903857	     21.01797502	      4.54662874	     -7.35121526	     -8.38481060	      7.55733715	     10.26659360	     -7.03527592	     -7.36375506	     -2.66512085
      2.73000000	     -1.87116423	      4.44277930	     -0.29448003	     -0.22560922	      1.04873664	     -0.33193993	     -0.55184948	     -2.56700616	     -1.75916281	    -29.87386592	     19.59276962	     -4.73671800	     21.46269766	      3.96562087	     -8.45430365	     -8.50645528	      8.37697393	     10.09543260	     -7.41619548	     -6.75479880	     -2.69197920
      2.74000000	     -1.85363717	      3.98954293	     -0.17980909	     -0.23650691	      1.04877028	     -0.33089755	     -0.14888742	     -2.03715284	     -2.28226046	    -29.51076560	     19.99731428	     -5.22461158	     21.96125769	      3.33795587	     -9.76704813	     -8.87941082	      9.02532312	      9.78096325	     -7.78280939	     -6.14459069	     -2.67395145
      2.75000000	     -1.82940952	      3.53707462	     -0.10207204	     -0.24721115	      1.04893056	     -0.32980345	      0.25367718	     -1.50200209	     -2.62618118	    -29.16179094	     20.29971683	     -5.61000280	     22.50291493	      2.66631039	    -11.28523710	     -9.52811455	      9.46844924	      9.36106624	     -8.12665135	     -5.55329170	     -2.62828656
      2.76000000	     -1.79244969	      3.09590277	     -0.05843630	     -0.25765277	      1.04923352	     -0.32863319	      0.62758006	     -0.96985057	     -2.82313233	    -28.79677309	     20.51222602	     -5.93172098	     23.06314606	      1.94884372	    -12.96122168	    -10.45732294	      9.69992519	      8.84565906	     -8.44935454	     -4.99916553	     -2.57208256
      2.77000000	     -1.70096781	      2.66011791	     -0.05862959	     -0.26776100	      1.04976426	     -0.32734952	      0.90318889	     -0.42983029	     -2.89256588	    -28.37658268	     20.63956452	     -6.18251193	     23.56475982	      1.16746871	    -14.71867964	    -11.64063354	      9.73605108	      8.29042476	     -8.79542616	     -4.47794135	     -2.49499128
      2.78000000	     -1.64983957	      2.26973271	     -0.05190357	     -0.27747992	      1.05035233	     -0.32604150	      1.17417696	      0.06654659	     -2.95645468	    -27.90363150	     20.69313697	     -6.53662956	     24.09367366	      0.38129306	    -16.43021673	    -13.06594580	      9.68142532	      7.48864568	     -9.04401584	     -4.03024515	     -2.47817766
      2.79000000	     -1.51954026	      1.88682414	     -0.07365030	     -0.28680285	      1.05123052	     -0.32463758	      1.29348616	      0.56907477	     -2.98322991	    -27.33389712	     20.67380667	     -6.87600239	     24.47805190	     -0.45123011	    -17.99965990	    -14.65765529	      9.54725495	      6.64440818	     -9.33876327	     -3.61627348	     -2.45818258
      2.80000000	     -1.33929873	      1.52301740	     -0.10717832	     -0.29575295	      1.05235011	     -0.32317579	      1.29292175	      1.06610673	     -2.99594255	    -26.67139307	     20.57004351	     -7.23957937	     24.73448241	     -1.29467995	    -19.31568870	    -16.37467357	      9.40017960	      5.75646778	     -9.64743835	     -3.24542107	     -2.47071919
      2.81000000	     -1.12496685	      1.19550027	     -0.13011638	     -0.30430107	      1.05367024	     -0.32175368	      1.18830812	      1.52120722	     -3.09965411	    -25.91710905	     20.41356505	     -7.66094220	     24.86620235	     -2.09702996	    -20.30459834	    -18.17361841	      9.33041481	      4.78827868	     -9.94178284	     -2.92874346	     -2.49982214
      2.82000000	     -0.87343220	      0.89136465	     -0.15404408	     -0.31256995	      1.05518170	     -0.32035976	      0.99572824	      1.95755702	     -3.22050925	    -25.09905809	     20.18128809	     -8.08847589	     24.87914362	     -2.85452642	    -20.91075635	    -20.03437215	      9.32699688	      3.85233816	    -10.24298149	     -2.64912999	     -2.55161917
      2.83000000	     -0.61072295	      0.62085239	     -0.17099156	     -0.32059283	      1.05682342	     -0.31902627	      0.75458649	      2.35677755	     -3.38467066	    -24.23729341	     19.89195034	     -8.52126612	     24.80647119	     -3.53221490	    -21.11391265	    -21.93729814	      9.38356437	      2.95379129	    -10.52088964	     -2.41817906	     -2.60772528
      2.84000000	     -0.35405805	      0.37750880	     -0.18760444	     -0.32846289	      1.05853056	     -0.31778275	      0.50821638	      2.72209315	     -3.56375396	    -23.37151424	     19.55472734	     -8.92953385	     24.68459751	     -4.12120170	    -20.91890754	    -23.88314128	      9.49014696	      2.13922202	    -10.76750999	     -2.22095878	     -2.65769688
      2.85000000	     -0.12658204	      0.16337913	     -0.20091422	     -0.33623719	      1.06024356	     -0.31663873	      0.29719708	      3.04976481	     -3.73847853	    -22.52889679	     19.15921975	     -9.29163115	     24.55015511	     -4.60493857	    -20.34930853	    -25.86359646	      9.61220225	      1.43865840	    -10.96343336	     -2.05735421	     -2.71943722
      2.86000000	      0.05862430	     -0.02918502	     -0.23101854	     -0.34399027	      1.06190158	     -0.31559077	      0.16595425	      3.33958681	     -3.90309849	    -21.75813676	     18.75454043	     -9.61445926	     24.42796158	     -4.98881998	    -19.45447866	    -27.87921575	      9.72631392	      0.83545642	    -11.10392228	     -1.91977033	     -2.72793117
      2.87000000	      0.18585947	     -0.19733200	     -0.27582476	     -0.35175428	      1.06346867	     -0.31464296	      0.13600574	      3.59296223	     -4.00788260	    -21.06689386	     18.32119100	     -9.88448155	     24.33709468	     -5.26397514	    -18.29288492	    -29.91661121	      9.82484158	      0.33755935	    -11.17631255	     -1.80790473	     -2.73050880
      2.88000000	      0.26354330	     -0.34832403	     -0.33748245	     -0.35954411	      1.06493478	     -0.31382073	      0.21134568	      3.81015105	     -4.07863791	    -20.47673504	     17.87592103	    -10.08638815	     24.26983442	     -5.43777576	    -16.92966532	    -31.96951432	      9.90836101	     -0.04096916	    -11.19472304	     -1.70825778	     -2.70945285
      2.89000000	      0.29159964	     -0.48426124	     -0.42318028	     -0.36737311	      1.06628416	     -0.31311192	      0.40059765	      3.99506795	     -4.10343984	    -20.00174623	     17.42612655	    -10.24419738	     24.22093319	     -5.52032126	    -15.44160289	    -34.02272850	      9.96433955	     -0.33195159	    -11.16201599	     -1.61969661	     -2.66741781
      2.90000000	      0.34027485	     -0.61220501	     -0.53716119	     -0.37521195	      1.06762297	     -0.31250050	      0.62054370	      4.15741834	     -4.07871101	    -19.62823456	     16.95345287	    -10.32845036	     24.09985589	     -5.53425919	    -13.91593289	    -36.05096776	      9.99989780	     -0.51142643	    -11.15908261	     -1.53455494	     -2.61319824
      2.91000000	      0.27839899	     -0.70967482	     -0.65527762	     -0.38304166	      1.06871521	     -0.31204647	      1.01237956	      4.27380404	     -4.04684971	    -19.35936465	     16.53086097	    -10.43823059	     24.04686552	     -5.44712166	    -12.36284589	    -38.04252288	     10.03998469	     -0.66306557	    -11.02167198	     -1.47249518	     -2.55384220
      2.92000000	      0.24232773	     -0.79117713	     -0.79662089	     -0.39084373	      1.06978193	     -0.31167050	      1.41821776	      4.36911397	     -3.95885244	    -19.17530662	     16.09446334	    -10.52229592	     23.89733168	     -5.30767348	    -10.88143863	    -39.96985769	     10.06190124	     -0.74187637	    -10.91271497	     -1.42383864	     -2.51648591
